#!OML:ASF H:\BabyWalks\Project 1\Capture day 1\Session 1\baby.ASF
:FULLY-SPECIFIED
:DEGREES
673
root 4.48284 9.89126 -1.68553 -856.284 82.5245 -904.743
lowerback 43.0502 -5.34277 7.51624
upperback 0.475238 -2.4824 0.568383
thorax -20.7415 -1.46517 -2.01577
lowerneck -2.57131 -2.91328 2.91153
upperneck -23.5241 -3.9328 -3.20414
head -6.87034 -1.5353 -1.37957
rclavicle 1.59028e-015 -4.64162e-014
rhumerus 17.4412 28.9486 -73.3775
rradius 25.652
rwrist 57.2872
rhand -71.9896 265.998
rfingers 7.12502
rthumb -43.4711 69.9244
lclavicle 1.59028e-015 -4.64162e-014
lhumerus 37.7938 -18.196 59.2488
lradius 34.3122
lwrist -25.3158
lhand -49.2499 -36.4963
lfingers 7.12502
lthumb -21.869 -7.7121
rfemur -61.2606 -21.4264 24.2987
rtibia 125.606
rfoot 12.9323 17.395
rtoes 25.1094
lfemur -33.5946 -8.53176 -12.4946
ltibia 91.856
lfoot 27.0567 -25.3022
ltoes 10.4372
674
root 4.56355 9.87421 -1.67048 -858.04 82.4368 -906.398
lowerback 42.6234 -5.26431 7.47372
upperback 0.452155 -2.43798 0.646815
thorax -20.6117 -1.44338 -1.93934
lowerneck -3.13984 -3.11731 2.93665
upperneck -23.0018 -4.2902 -3.57875
head -6.62266 -1.69689 -1.49322
rclavicle -3.81667e-014 -3.96575e-014
rhumerus 16.8526 27.9354 -74.4059
rradius 24.4282
rwrist 58.5284
rhand -71.7773 266.636
rfingers 7.12502
rthumb -43.2728 69.2147
lclavicle -3.81667e-014 -3.96575e-014
lhumerus 37.1684 -18.2544 60.5184
lradius 33.7316
lwrist -26.0311
lhand -49.4127 -37.4265
lfingers 7.12502
lthumb -22.0253 -8.66063
rfemur -60.7588 -20.7686 23.8117
rtibia 125.429
rfoot 12.0738 17.552
rtoes 24.7345
lfemur -32.8687 -8.74776 -12.6042
ltibia 91.1051
lfoot 27.2131 -25.2515
ltoes 10.4944
675
root 4.6459 9.85514 -1.65272 -859.95 82.3949 -908.204
lowerback 42.1742 -5.15277 7.3659
upperback 0.4429 -2.3906 0.704381
thorax -20.4539 -1.4149 -1.85594
lowerneck -3.74684 -3.32006 2.96771
upperneck -22.4446 -4.64953 -4.01655
head -6.36217 -1.85833 -1.63032
rclavicle -1.66979e-014 1.12313e-014
rhumerus 16.2439 27.0527 -75.302
rradius 23.3503
rwrist 59.5619
rhand -71.5659 269.981
rfingers 7.12502
rthumb -43.0752 65.7996
lclavicle -1.66979e-014 1.12313e-014
lhumerus 36.595 -18.3237 61.7269
lradius 33.0978
lwrist -26.7432
lhand -49.5713 -38.3516
lfingers 7.12502
lthumb -22.1776 -9.60381
rfemur -60.149 -20.0725 23.2789
rtibia 125.24
rfoot 11.3113 17.661
rtoes 24.3693
lfemur -32.1101 -8.92195 -12.7663
ltibia 90.3527
lfoot 27.2948 -25.1601
ltoes 10.6039
676
root 4.72927 9.83438 -1.63196 -861.976 82.3874 -910.122
lowerback 41.7195 -5.01127 7.19959
upperback 0.44405 -2.33697 0.74403
thorax -20.2783 -1.37912 -1.76648
lowerneck -4.37234 -3.5152 2.99892
upperneck -21.8701 -4.99655 -4.49506
head -6.09716 -2.01393 -1.78299
rclavicle -1.64991e-014 -3.94588e-014
rhumerus 15.6023 26.4293 -76.014
rradius 22.4844
rwrist 60.2468
rhand -71.3439 443.541
rfingers 7.12502
rthumb -42.8677 59.2483
lclavicle -1.64991e-014 -3.94588e-014
lhumerus 36.0712 -18.4061 62.8723
lradius 32.4204
lwrist -27.4553
lhand -49.7253 -39.2608
lfingers 7.12502
lthumb -22.3254 -10.5307
rfemur -59.4438 -19.3593 22.7379
rtibia 125.025
rfoot 10.7391 17.6873
rtoes 24.0618
lfemur -31.3292 -9.05444 -12.9622
ltibia 89.6031
lfoot 27.3254 -25.0414
ltoes 10.7603
677
root 4.81362 9.81309 -1.60787 -864.011 82.4037 -912.049
lowerback 41.2731 -4.84416 6.98832
upperback 0.45018 -2.27328 0.767376
thorax -20.0969 -1.33608 -1.67714
lowerneck -4.99387 -3.69678 3.02712
upperneck -21.2983 -5.31782 -4.98664
head -5.83652 -2.15851 -1.94187
rclavicle 2.60408e-014 -3.46382e-014
rhumerus 14.9183 26.1844 -76.5176
rradius 21.8725
rwrist 60.472
rhand -71.0935 434.287
rfingers 7.12502
rthumb -42.6333 49.9124
lclavicle 2.60408e-014 -3.46382e-014
lhumerus 35.5915 -18.5054 63.9452
lradius 31.7169
lwrist -28.1585
lhand -49.8705 -40.1578
lfingers 7.12502
lthumb -22.4648 -11.4444
rfemur -58.6744 -18.6354 22.2266
rtibia 124.771
rfoot 10.4413 17.5691
rtoes 23.9175
lfemur -30.5418 -9.14061 -13.1647
ltibia 88.8589
lfoot 27.3379 -24.9064
ltoes 10.9592
